<?xml version="1.0" encoding="utf-8"?>
<!-- Generator: Adobe Illustrator 22.1.0, SVG Export Plug-In . SVG Version: 6.00 Build 0)  -->
<svg version="1.1" id="Layer_1" xmlns="http://www.w3.org/2000/svg" xmlns:xlink="http://www.w3.org/1999/xlink" x="0px" y="0px"
	 viewBox="0 0 317.5 232.8" style="enable-background:new 0 0 317.5 232.8;" xml:space="preserve">
<path d="M86.1,160.4c4.1,6.6,3.7,15.7-2.6,22.1c-7.1,7.1-18.2,7-25.3,0c-6.9-6.9-7.1-17.9-0.1-25c6.3-6.3,15.4-7.2,22.4-2.6
	l-7.1,7.1c-2.4-0.9-5.5-1.1-8.4,1.8c-3.5,3.2-3,8.2,0.4,11.6c3.4,3.4,8.3,3.7,11.6,0.4c2.9-2.9,2.6-6,2-8.3L86.1,160.4z"/>
<path d="M126.1,86L119,93l-5.4-5.4l7.1-7.1L126.1,86z M152.2,112.1l-7.1,7.1l-23.6-23.6l7.1-7.1L152.2,112.1z"/>
<path d="M0,201.3l7.1-7.1l31.5,31.5l-7.1,7.1L0,201.3z"/>
<path d="M29.9,185.6c8.6-8.6,19.5-6,25.3-0.2c5.8,5.8,8.4,16.7-0.2,25.3c-8.6,8.6-19.5,6-25.3,0.2C23.9,205.1,21.3,194.2,29.9,185.6
	z M48.4,204.1c3.1-3.1,3.1-8.2-0.3-11.6c-3.4-3.4-8.5-3.4-11.6-0.3c-3.1,3.1-3.1,8.2,0.3,11.6C40.2,207.3,45.3,207.2,48.4,204.1z"/>
<path d="M123.9,140.3l-7.1,7.1l-2.6-2.6l-0.1,0.1c1.1,3.5-0.8,7.5-3.5,10.2c-7.5,7.5-17.7,6-24.5-0.8c-7.7-7.7-7-18.2-0.7-24.5
	c3.9-3.9,7.9-4.2,10.2-3.6l0.1-0.1l-2.5-2.5l7.1-7.1L123.9,140.3z M105.2,147.5c4.4-4.4,2.2-9.7-0.1-12c-2.9-2.9-8-4-12,0
	c-4,4-2.4,9.2,0.3,11.9C95.6,149.7,100.9,151.8,105.2,147.5z"/>
<path d="M114.5,102.6l3.4-3.4l5.4,5.4l-3.4,3.4l18.2,18.2l-7.1,7.1L112.8,115l-3.5,3.5l-5.4-5.4l3.5-3.5l-7.9-7.9l7.1-7.1
	L114.5,102.6z"/>
<path d="M247.2,41.9l-7.1,7.1l-5.4-5.4l7.1-7.1L247.2,41.9z M273.3,68.1l-7.1,7.1l-23.6-23.6l7.1-7.1L273.3,68.1z"/>
<path d="M235.6,58.5l3.4-3.4l5.4,5.4l-3.4,3.4l18.2,18.2l-7.1,7.1l-18.2-18.2l-3.5,3.5l-5.4-5.4l3.5-3.5l-7.9-7.9l7.1-7.1
	L235.6,58.5z"/>
<path d="M143.6,72c8.6-8.6,19.5-6,25.3-0.2c5.8,5.8,8.4,16.7-0.2,25.3c-8.6,8.6-19.5,6-25.3,0.2C137.6,91.4,135,80.6,143.6,72z
	 M162.1,90.5c3.1-3.1,3.1-8.2-0.3-11.6s-8.5-3.4-11.6-0.3c-3.1,3.1-3.1,8.2,0.3,11.6C153.9,93.6,159,93.5,162.1,90.5z"/>
<path d="M160.1,57l6.6-6.6l2.5,2.5l0.1-0.1c-0.4-1.9-1.1-5.5,3.1-9.7c2.3-2.3,5.7-3.8,8.1-4c2.4-0.2,5.7,0.3,10.3,4.9l14.8,14.8
	l-7.1,7.1l-12.9-12.9c-1.7-1.7-4.9-4.9-8.6-1.2c-4,4-0.6,7.5,0.9,9l12.8,12.8l-7.1,7.1L160.1,57z"/>
<path d="M129.1,194.3c4.1,6.6,3.7,15.7-2.6,22.1c-7.1,7.1-18.2,7-25.3,0c-6.9-6.9-7.1-17.9-0.1-25c6.3-6.3,15.4-7.2,22.4-2.6
	l-7.1,7.1c-2.4-0.9-5.5-1.1-8.4,1.8c-3.5,3.2-3,8.2,0.4,11.6c3.4,3.4,8.3,3.7,11.6,0.4c2.9-2.9,2.6-6,2-8.3L129.1,194.3z"/>
<path d="M129.4,163.2c8.6-8.6,19.5-6,25.3-0.2c5.8,5.8,8.4,16.7-0.2,25.3c-8.6,8.6-19.5,6-25.3,0.2
	C123.5,182.7,120.8,171.8,129.4,163.2z M147.9,181.7c3.1-3.1,3.1-8.2-0.3-11.6c-3.4-3.4-8.5-3.4-11.6-0.3c-3.1,3.1-3.1,8.2,0.3,11.6
	C139.8,184.8,144.9,184.7,147.9,181.7z"/>
<path d="M138.1,140.3l7.1-7.1l31.5,31.5l-7.1,7.1L138.1,140.3z"/>
<path d="M152.2,126.2l7.1-7.1l31.5,31.5l-7.1,7.1L152.2,126.2z"/>
<path d="M210.4,116.2c1.5,3.8,1.9,7.5,1.2,10.8c-0.6,3.4-2.2,6.4-4.6,8.8c-6.8,6.8-18,7-25,0c-6.6-6.6-7.5-17.9-0.3-25
	c7.2-7.2,18.2-6.8,25.3,0.4c0.9,0.9,1.2,1.4,1.7,2L191.1,131c3.2,2.4,7.2,1.7,10-1.1c2.2-2.2,2.3-4.3,2.1-6.5L210.4,116.2z
	 M197.1,115.4c-1.7-1.1-5.7-2.3-9.4,1.3c-3.7,3.7-2.4,7.7-1.3,9.4L197.1,115.4z"/>
<path d="M237.6,85.8c4.1,6.6,3.7,15.7-2.6,22.1c-7.1,7.1-18.2,7-25.3,0c-6.9-6.9-7.1-17.9-0.1-25c6.3-6.3,15.4-7.2,22.4-2.6
	l-7.1,7.1c-2.4-0.9-5.5-1.1-8.4,1.8c-3.5,3.2-3,8.2,0.4,11.6c3.4,3.4,8.3,3.7,11.6,0.4c2.9-2.9,2.6-6,2-8.3L237.6,85.8z"/>
<path d="M291.5,49.8l-6.8,6.8l-32.1-15.1l7.3-7.3l19.2,10.2l0.1-0.1L269.1,25l7.3-7.3L291.5,49.8z"/>
<path d="M316,10.5c1.5,3.8,1.9,7.5,1.2,10.8c-0.6,3.4-2.2,6.4-4.6,8.8c-6.8,6.8-18,7-25,0c-6.6-6.6-7.5-17.9-0.3-25
	s18.2-6.8,25.3,0.4c0.9,0.9,1.2,1.4,1.7,2l-17.7,17.7c3.2,2.4,7.2,1.7,10-1.1c2.2-2.2,2.3-4.3,2.1-6.5L316,10.5z M302.7,9.8
	c-1.7-1.1-5.7-2.3-9.4,1.3c-3.7,3.7-2.4,7.7-1.3,9.4L302.7,9.8z"/>
</svg>
